<svg width="67" height="67" viewBox="0 0 67 67" fill="none" xmlns="http://www.w3.org/2000/svg">
<g id="paper-plane-origami-svgrepo-com 1">
<g id="Group">
<g id="Group_2">
<path id="Vector" d="M63.6448 0.325945L4.046 36.7198C2.50626 37.6601 2.7067 39.9436 4.38214 40.6086L25.9059 49.1532V64.813C25.9059 66.6915 28.148 67.6944 29.5665 66.4488L42.4614 55.1224L63.7381 66.7253C65.2027 67.5235 67 66.471 67 64.8107V2.18651C67 0.4835 65.109 -0.568088 63.6448 0.325945ZM27.4091 45.0442L10.0806 38.1652L55.1642 10.6348L27.4091 45.0442ZM40.3476 51.1444L30.3088 59.9621V48.4409L55.7807 16.8624L40.3476 51.1444ZM62.5971 61.1176L45.0002 51.5216L62.5971 12.4327V61.1176Z" fill="#6E6E6E"/>
</g>
</g>
</g>
</svg>
