<svg width="52" height="55" viewBox="0 0 52 55" fill="none" xmlns="http://www.w3.org/2000/svg">
<path d="M49.2739 0.267567L0.849871 30.1432C-0.401166 30.915 -0.238304 32.7895 1.12299 33.3354L18.611 40.3496V53.2047C18.611 54.7468 20.4327 55.5701 21.5853 54.5475L32.0624 45.2497L49.3497 54.7745C50.5397 55.4298 52 54.5658 52 53.2028V1.79489C52 0.396903 50.4635 -0.466341 49.2739 0.267567ZM19.8324 36.9766L5.75298 31.3296L42.3834 8.73006L19.8324 36.9766ZM30.3449 41.9842L22.1884 49.2226V39.7649L42.8843 13.8423L30.3449 41.9842ZM48.4226 50.1711L34.1251 42.2939L48.4226 10.2059V50.1711Z" fill="white"/>
</svg>
