<svg width="42" height="44" viewBox="0 0 42 44" fill="none" xmlns="http://www.w3.org/2000/svg">
<path id="Star 1" d="M13.4362 4.26301C13.7877 0.608258 18.4654 -0.681606 20.6404 2.27644L25.1547 8.41592C26.0933 9.69233 27.6967 10.2945 29.2435 9.95145L36.6832 8.30133C40.2677 7.50629 42.9399 11.5564 40.7988 14.5391L36.3548 20.7297C35.4309 22.0167 35.3537 23.7278 36.1579 25.0928L40.0263 31.6585C41.8901 34.8219 38.864 38.6148 35.3656 37.5002L28.1048 35.1867C26.5952 34.7057 24.944 35.161 23.8943 36.3477L18.8454 42.0557C16.4128 44.8058 11.8703 43.0999 11.8494 39.4283L11.8059 31.8079C11.7968 30.2236 10.8536 28.7939 9.40057 28.1623L2.4118 25.1243C-0.955447 23.6606 -0.736712 18.8133 2.74868 17.6588L9.98267 15.2626C11.4866 14.7645 12.5548 13.4256 12.7065 11.8485L13.4362 4.26301Z" fill="#A3C384"/>
</svg>
