<svg width="519" height="106" viewBox="0 0 519 106" fill="none" xmlns="http://www.w3.org/2000/svg">
<path d="M98.2778 91.6091C96.1657 91.6091 94.1349 91.3857 92.1852 90.939C90.2762 90.4922 88.5906 89.7814 87.1284 88.8065C85.6661 87.7911 84.5085 86.4913 83.6556 84.9073C82.8026 83.3232 82.3761 81.3939 82.3761 79.1193C82.3761 78.9568 82.3761 78.774 82.3761 78.571C82.3761 78.3273 82.3964 78.1039 82.437 77.9008H88.4687C88.4281 78.1445 88.4078 78.3679 88.4078 78.571C88.4078 78.774 88.4078 78.9974 88.4078 79.2411C88.4078 80.9065 88.814 82.2671 89.6263 83.3232C90.4387 84.3792 91.576 85.151 93.0382 85.6384C94.5004 86.1258 96.2063 86.3695 98.156 86.3695C100.106 86.3695 101.791 86.1664 103.213 85.7602C104.634 85.3134 105.731 84.5823 106.503 83.5669C107.315 82.5515 107.721 81.2111 107.721 79.5458C107.721 78.0429 107.275 76.8447 106.381 75.9511C105.487 75.0575 104.31 74.3467 102.847 73.8187C101.426 73.2501 99.8416 72.7424 98.0951 72.2956C96.3891 71.8488 94.6629 71.3614 92.9163 70.8333C91.2104 70.3053 89.6263 69.6148 88.1641 68.7619C86.7425 67.9089 85.5849 66.7716 84.6913 65.35C83.7977 63.8878 83.3509 62.0397 83.3509 59.8057C83.3509 57.2468 84.0414 55.1347 85.4224 53.4694C86.8034 51.8041 88.6312 50.5856 90.9058 49.8138C93.1803 49.0015 95.6783 48.5953 98.3997 48.5953C101.121 48.5953 103.599 49.0015 105.833 49.8138C108.067 50.5856 109.833 51.8244 111.133 53.5303C112.474 55.1956 113.144 57.4093 113.144 60.1713V60.9633H107.234V59.9885C107.234 58.6075 106.848 57.4499 106.076 56.5157C105.345 55.5409 104.31 54.8098 102.969 54.3224C101.669 53.835 100.146 53.5913 98.3997 53.5913C96.775 53.5913 95.3128 53.7943 94.013 54.2005C92.7132 54.6067 91.6775 55.2363 90.9058 56.0892C90.1747 56.9422 89.8091 58.0592 89.8091 59.4402C89.8091 60.8618 90.2356 61.9991 91.0885 62.852C91.9821 63.705 93.1397 64.3955 94.5613 64.9235C96.0236 65.4109 97.6279 65.8577 99.3745 66.2639C101.121 66.6701 102.847 67.1372 104.553 67.6652C106.3 68.1932 107.884 68.8837 109.305 69.7367C110.768 70.5896 111.946 71.7472 112.839 73.2095C113.773 74.6311 114.24 76.4589 114.24 78.6928C114.24 81.8203 113.53 84.3386 112.108 86.2476C110.727 88.116 108.818 89.4767 106.381 90.3297C103.985 91.1827 101.284 91.6091 98.2778 91.6091ZM133.469 90.9999V64.6189H122.32V59.8666H139.562V90.9999H133.469ZM122.32 90.9999V86.3086H150.102V90.9999H122.32ZM133.226 53.4694V47.6205H138.953V53.4694H133.226ZM158.303 90.9999V59.8666H163.238L163.848 64.3142C164.782 62.5677 166.102 61.2883 167.808 60.4759C169.514 59.6636 171.402 59.2574 173.474 59.2574C176.886 59.2574 179.607 60.2119 181.638 62.1209C183.669 64.0299 184.684 66.8528 184.684 70.5896V90.9999H178.592V72.3565C178.592 69.432 177.982 67.2996 176.764 65.9593C175.586 64.6189 173.921 63.9487 171.768 63.9487C170.265 63.9487 168.965 64.3346 167.869 65.1063C166.772 65.8374 165.919 66.8731 165.31 68.2135C164.701 69.5133 164.396 71.0161 164.396 72.7221V90.9999H158.303ZM207.264 91.6091C205.355 91.6091 203.548 91.2436 201.842 90.5125C200.176 89.7814 198.714 88.7456 197.455 87.4052C196.237 86.0242 195.282 84.3996 194.592 82.5312C193.901 80.6221 193.556 78.4897 193.556 76.1339V74.6717C193.556 72.3159 193.901 70.2038 194.592 68.3354C195.282 66.4264 196.237 64.8017 197.455 63.4613C198.714 62.0803 200.176 61.0445 201.842 60.3541C203.507 59.6229 205.335 59.2574 207.325 59.2574H208.056C210.574 59.2574 212.788 59.7854 214.697 60.8415C216.606 61.8569 218.109 63.3191 219.206 65.2281C220.302 67.0965 220.851 69.3711 220.851 72.0519H215.367C215.367 70.0616 215.042 68.4572 214.392 67.2387C213.743 65.9796 212.849 65.0657 211.712 64.497C210.615 63.8878 209.315 63.5831 207.812 63.5831C205.619 63.5831 203.751 64.3955 202.207 66.0202C200.704 67.6043 199.953 70.0616 199.953 73.3922V77.4743C199.953 80.6831 200.684 83.1201 202.146 84.7854C203.649 86.4507 205.599 87.2834 207.995 87.2834C209.457 87.2834 210.737 86.9991 211.834 86.4304C212.971 85.8212 213.844 84.9073 214.453 83.6887C215.103 82.4296 215.428 80.8049 215.428 78.8147H220.851C220.851 81.536 220.282 83.8512 219.145 85.7602C218.048 87.6693 216.525 89.1315 214.575 90.1469C212.666 91.1217 210.473 91.6091 207.995 91.6091H207.264ZM244.405 91.6091C241.156 91.6091 238.455 90.9593 236.302 89.6595C234.19 88.3597 232.606 86.532 231.55 84.1762C230.534 81.8203 230.027 79.1193 230.027 76.073V74.7935C230.027 71.6254 230.616 68.8837 231.794 66.5685C232.971 64.2533 234.657 62.4662 236.85 61.207C239.044 59.9073 241.643 59.2574 244.649 59.2574C247.452 59.2574 249.848 59.826 251.838 60.9633C253.869 62.1006 255.433 63.6441 256.53 65.5937C257.667 67.5433 258.235 69.7773 258.235 72.2956V76.4385H236.363V77.4743C236.363 80.6831 237.135 83.1201 238.678 84.7854C240.222 86.4507 242.171 87.2834 244.527 87.2834C247.127 87.2834 249.097 86.6538 250.437 85.3947C251.818 84.1355 252.508 82.1859 252.508 79.5458H258.235C258.235 82.0234 257.647 84.1762 256.469 86.0039C255.331 87.7911 253.727 89.1721 251.655 90.1469C249.625 91.1217 247.208 91.6091 244.405 91.6091ZM236.424 72.4783H252.265V71.5645C252.265 70.021 251.94 68.6603 251.29 67.4824C250.681 66.2639 249.787 65.3094 248.609 64.6189C247.431 63.9284 246.071 63.5831 244.527 63.5831C242.781 63.5831 241.298 64.0096 240.08 64.8626C238.902 65.7155 237.988 66.8122 237.338 68.1526C236.729 69.4523 236.424 70.7927 236.424 72.1737V72.4783ZM273.321 90.9999V64.6189H265.462V59.8666H278.256L278.561 64.4361C279.292 62.8114 280.409 61.5523 281.912 60.6587C283.455 59.7245 285.222 59.2574 287.213 59.2574C290.259 59.2574 292.594 60.1713 294.219 61.9991C295.884 63.7862 296.717 66.0811 296.717 68.8837C296.717 69.3305 296.697 69.757 296.656 70.1632C296.656 70.5287 296.615 70.9755 296.534 71.5035H291.355V70.2241C291.355 69.1274 291.132 68.112 290.685 67.1778C290.279 66.2436 289.629 65.4922 288.736 64.9235C287.883 64.3142 286.766 64.0096 285.385 64.0096C284.044 64.0096 282.907 64.3955 281.973 65.1672C281.079 65.9389 280.409 66.9138 279.962 68.0917C279.516 69.2696 279.292 70.5084 279.292 71.8082V90.9999H273.321ZM265.157 90.9999V86.3086H293.244V90.9999H265.157ZM317.469 91.6091C314.22 91.6091 311.519 90.9593 309.366 89.6595C307.254 88.3597 305.67 86.532 304.614 84.1762C303.598 81.8203 303.09 79.1193 303.09 76.073V74.7935C303.09 71.6254 303.679 68.8837 304.857 66.5685C306.035 64.2533 307.721 62.4662 309.914 61.207C312.107 59.9073 314.707 59.2574 317.713 59.2574C320.515 59.2574 322.912 59.826 324.902 60.9633C326.933 62.1006 328.497 63.6441 329.593 65.5937C330.731 67.5433 331.299 69.7773 331.299 72.2956V76.4385H309.427V77.4743C309.427 80.6831 310.198 83.1201 311.742 84.7854C313.285 86.4507 315.235 87.2834 317.591 87.2834C320.19 87.2834 322.16 86.6538 323.501 85.3947C324.882 84.1355 325.572 82.1859 325.572 79.5458H331.299C331.299 82.0234 330.71 84.1762 329.532 86.0039C328.395 87.7911 326.791 89.1721 324.719 90.1469C322.688 91.1217 320.272 91.6091 317.469 91.6091ZM309.488 72.4783H325.328V71.5645C325.328 70.021 325.003 68.6603 324.354 67.4824C323.744 66.2639 322.851 65.3094 321.673 64.6189C320.495 63.9284 319.134 63.5831 317.591 63.5831C315.844 63.5831 314.362 64.0096 313.143 64.8626C311.965 65.7155 311.051 66.8122 310.402 68.1526C309.792 69.4523 309.488 70.7927 309.488 72.1737V72.4783ZM351.442 90.9999V51.8244H340.232V47.0722H357.474V90.9999H351.442ZM340.232 90.9999V86.3086H368.075V90.9999H340.232ZM382.247 102.332C381.394 102.332 380.581 102.251 379.81 102.088C379.079 101.967 378.368 101.763 377.677 101.479V96.9706C378.124 97.1737 378.693 97.3565 379.383 97.519C380.074 97.7221 380.744 97.8236 381.394 97.8236C382.531 97.8236 383.425 97.5596 384.075 97.0316C384.724 96.5442 385.293 95.7521 385.78 94.6554C386.308 93.5994 386.918 92.1778 387.608 90.3906L375.545 59.8666H382.064L390.715 82.8967H391.081L399.55 59.8666H405.52L393.823 89.7204C392.929 92.0356 391.975 94.1477 390.959 96.0567C389.984 97.9658 388.806 99.4889 387.425 100.626C386.044 101.763 384.318 102.332 382.247 102.332ZM423.104 90.9999V83.445H431.025V90.9999H423.104ZM459.636 90.9999V83.445H467.557V90.9999H459.636ZM496.168 90.9999V83.445H504.088V90.9999H496.168Z" fill="black"/>
<path d="M27.4362 18.263C27.7877 14.6083 32.4654 13.3184 34.6404 16.2764L39.1547 22.4159C40.0933 23.6923 41.6967 24.2945 43.2435 23.9514L50.6832 22.3013C54.2677 21.5063 56.9399 25.5564 54.7988 28.5391L50.3548 34.7297C49.4309 36.0167 49.3537 37.7278 50.1579 39.0928L54.0263 45.6585C55.8901 48.8219 52.864 52.6148 49.3656 51.5002L42.1048 49.1867C40.5952 48.7057 38.944 49.161 37.8943 50.3477L32.8454 56.0557C30.4128 58.8058 25.8703 57.0999 25.8494 53.4283L25.8059 45.8079C25.7968 44.2236 24.8536 42.7939 23.4006 42.1623L16.4118 39.1243C13.0446 37.6606 13.2633 32.8133 16.7487 31.6588L23.9827 29.2626C25.4866 28.7645 26.5548 27.4256 26.7065 25.8485L27.4362 18.263Z" fill="#A3C384"/>
</svg>
